<svg width="374" height="48" viewBox="0 0 374 48" fill="none" xmlns="http://www.w3.org/2000/svg">
<path d="M335.07 15.2395H336.62C336.331 13.5666 335.754 11.8442 334.888 10.0722C334.022 8.30053 332.851 6.64999 331.377 5.1217C329.903 3.59303 328.118 2.35747 326.021 1.41425C323.924 0.471612 321.5 0 318.75 0C314.921 0 311.555 1.00377 308.653 3.0115C305.75 5.01884 303.486 7.825 301.86 11.4296C300.234 15.0342 299.421 19.2244 299.421 23.9999C299.421 28.7758 300.234 32.9658 301.86 36.5702C303.486 40.175 305.75 42.981 308.653 44.9885C311.555 46.9962 314.921 48 318.75 48C321.5 48 323.924 47.5245 326.021 46.574C328.118 45.6237 329.903 44.3803 331.377 42.8442C332.851 41.3081 334.022 39.654 334.888 37.8822C335.754 36.1104 336.331 34.403 336.62 32.7605H335.07C334.781 34.3272 334.219 35.9201 333.383 37.5399C332.547 39.1597 331.438 40.6505 330.055 42.0115C328.672 43.3726 327.039 44.4677 325.155 45.2965C323.271 46.1257 321.135 46.5399 318.75 46.5399C315.559 46.5399 312.607 45.6809 309.895 43.962C307.183 42.2435 305.002 39.7112 303.353 36.3649C301.704 33.0193 300.88 28.8975 300.88 23.9999C300.88 19.1635 301.704 15.0685 303.353 11.7147C305.002 8.36127 307.183 5.81394 309.895 4.07209C312.607 2.33083 315.559 1.4601 318.75 1.4601C321.135 1.4601 323.271 1.87841 325.155 2.71466C327.039 3.5513 328.672 4.65381 330.055 6.02261C331.438 7.39159 332.547 8.88226 333.383 10.4942C334.219 12.1065 334.781 13.6881 335.07 15.2395Z" fill="white"/>
<path d="M147.188 47.3611H145.729V0.638626H147.188V47.3611Z" fill="white"/>
<path d="M107.212 0.638704V47.3612H108.671V24.7299H130.096V23.2698H108.671V2.0988H132.284V0.638704H107.212Z" fill="white"/>
<path d="M198.313 0.638779V47.3613H196.854L164.944 3.37617H164.762V47.3613H163.303V0.638779H164.762L196.672 44.6235H196.854V0.638779H198.313Z" fill="white"/>
<path fill-rule="evenodd" clip-rule="evenodd" d="M235.886 31.5742L241.528 47.3611H243.078L226.394 0.638824H224.388L207.703 47.3611H209.253L214.896 31.5742H235.886ZM214.896 31.5742H214.541V30.1141H215.417L214.896 31.5742ZM235.364 30.1141H236.24V31.5742H235.886L235.364 30.1141ZM235.364 30.1141L225.482 2.46395H225.3L215.417 30.1141H235.364Z" fill="white"/>
<path d="M287.479 0.638779V47.3613H286.02L254.11 3.37617H253.927V47.3613H252.468V0.638779H253.927L285.837 44.6235H286.02V0.638779H287.479Z" fill="white"/>
<path d="M348.472 47.3613V0.638779H373.362V2.09888H349.931V23.2699H371.994V24.73H349.931V45.9012H374V47.3613H348.472Z" fill="white"/>
<path d="M31.3799 24.3497L46.3689 3.97754L62.6867 29.0661V47.3953H73.2992V29.1274L91.8169 0.717651H79.8159L67.9942 18.8064L56.2023 0.717651L36.5316 0.71756L24.9418 17.2875L12.8163 0.71756H0.398943L17.5622 23.5195L0 47.3952H12.3387L24.0697 30.6421L36.337 47.3952H48.7694L31.3799 24.3497Z" fill="white"/>
</svg>
