<svg width="220" height="40" viewBox="0 0 220 40" fill="none" xmlns="http://www.w3.org/2000/svg">
<path fill-rule="evenodd" clip-rule="evenodd" d="M194.854 9.25513C196.086 9.25513 197.172 9.46627 198.112 9.88829C199.052 10.3106 199.852 10.8637 200.512 11.5481C201.173 12.2323 201.697 12.9713 202.085 13.7644C202.473 14.5578 202.732 15.3289 202.861 16.0778H202.167C202.038 15.3833 201.786 14.6752 201.411 13.9534C201.037 13.2317 200.539 12.5643 199.92 11.9514C199.3 11.3386 198.568 10.845 197.724 10.4705C196.88 10.0961 195.923 9.90881 194.854 9.90881C193.424 9.90881 192.101 10.2986 190.886 11.0782C189.671 11.858 188.693 12.9985 187.955 14.4998C187.216 16.0013 186.846 17.8346 186.846 19.9999C186.846 22.1925 187.216 24.0378 187.955 25.5357C188.693 27.0338 189.671 28.1675 190.886 28.9369C192.101 29.7064 193.424 30.091 194.854 30.091C195.923 30.091 196.88 29.9056 197.724 29.5343C198.568 29.1633 199.3 28.673 199.92 28.0636C200.539 27.4543 201.037 26.7869 201.411 26.0617C201.786 25.3365 202.038 24.6234 202.167 23.922H202.861C202.732 24.6573 202.473 25.4217 202.085 26.215C201.697 27.0082 201.173 27.7487 200.512 28.4364C199.852 29.1242 199.052 29.6808 198.112 30.1063C197.172 30.5318 196.086 30.7447 194.854 30.7447C193.138 30.7447 191.63 30.2953 190.329 29.3964C189.029 28.4977 188.014 27.2414 187.286 25.6276C186.557 24.0139 186.193 22.138 186.193 19.9999C186.193 17.8619 186.557 15.9859 187.286 14.3721C188.014 12.7584 189.029 11.5021 190.329 10.6034C191.63 9.70451 193.138 9.25513 194.854 9.25513ZM57.7633 9.57638L63.1968 16.9947L68.3903 9.57638L77.2048 9.5764L82.4889 17.6747L87.7862 9.5764H93.164L84.8661 22.2954V30.4739H80.1105V22.268L72.7984 11.0359L66.0818 20.1565L73.8741 30.4739H68.3031L62.806 22.9736L57.5493 30.4739H52.0203L59.89 19.7848L52.199 9.57638H57.7633ZM125.851 9.5411L140.15 29.233H140.232V9.5411H140.885V30.4587H140.232L125.933 10.7666H125.851V30.4587H125.197V9.5411H125.851ZM165.806 9.5411L180.106 29.233H180.187V9.5411H180.841V30.4587H180.187L165.888 10.7666H165.806V30.4587H165.153V9.5411H165.806ZM111.298 9.54107V10.1948H100.716V19.673H110.317V20.3267H100.716V30.4587H100.063V9.54107H111.298ZM117.976 9.54104V30.4587H117.322V9.54104H117.976ZM153.469 9.54113L160.945 30.4587H160.25L157.722 23.3908H148.316L145.788 30.4587H145.093L152.57 9.54113H153.469ZM219.714 9.54107V10.1948H208.826V19.673H219.101V20.3267H208.826V29.805H220V30.4587H208.173V9.54107H219.714ZM157.881 22.7372L157.488 22.7371L157.722 23.3908L157.881 23.3909V22.7372ZM148.55 22.7371L148.157 22.7372V23.3909L148.316 23.3908L148.55 22.7371ZM153.06 10.3582H152.978L148.55 22.7371H157.488L153.06 10.3582Z" fill="white"/>
<path d="M0.00263158 19.6692L0 20C0 24.4973 1.48544 28.6472 3.99097 31.988L4.06728 32.0889L14.8281 21.4508L6.80325 13.4061H17.5429L20.2519 16.1004L26.3734 10.1846H34.4129L8.14421 36.1073C11.4287 38.5289 15.4798 39.971 19.8669 39.9996L20 40C30.9353 40 39.8207 31.2239 39.9974 20.3308L40 20C40 8.9543 31.0457 0 20 0C9.06482 0 0.179298 8.77614 0.00263158 19.6692ZM23.1122 29.5205L20.4274 26.8527L25.8337 21.6066L33.8646 29.5225L23.1122 29.5205Z" fill="url(#paint0_radial)"/>
<defs>
<radialGradient id="paint0_radial" cx="0" cy="0" r="1" gradientUnits="userSpaceOnUse" gradientTransform="translate(36 3.5) rotate(135) scale(48.7904)">
<stop stop-color="#14C5E4"/>
<stop offset="0.63" stop-color="#0D58EF"/>
<stop offset="1" stop-color="#100E75"/>
</radialGradient>
</defs>
</svg>
