<svg width="673" height="432" viewBox="0 0 673 432" fill="none" xmlns="http://www.w3.org/2000/svg">
<g filter="url(#filter0_d_3817_55783)">
<path d="M57.8 106V107H58.8V106H57.8ZM57.8 93.5H58.8V92.5H57.8V93.5ZM24.8 93.5H23.8V94.5H24.8V93.5ZM24.8 78.4V77.4H23.8V78.4H24.8ZM57.1 78.4V79.4H58.1V78.4H57.1ZM57.1 65.9H58.1V64.9H57.1V65.9ZM24.8 65.9H23.8V66.9H24.8V65.9ZM24.8 51.8V50.8H23.8V51.8H24.8ZM57.8 51.8V52.8H58.8V51.8H57.8ZM57.8 39.3H58.8V38.3H57.8V39.3ZM10.6 39.3V38.3H9.6V39.3H10.6ZM10.6 106H9.6V107H10.6V106ZM58.8 106V93.5H56.8V106H58.8ZM57.8 92.5H24.8V94.5H57.8V92.5ZM25.8 93.5V78.4H23.8V93.5H25.8ZM24.8 79.4H57.1V77.4H24.8V79.4ZM58.1 78.4V65.9H56.1V78.4H58.1ZM57.1 64.9H24.8V66.9H57.1V64.9ZM25.8 65.9V51.8H23.8V65.9H25.8ZM24.8 52.8H57.8V50.8H24.8V52.8ZM58.8 51.8V39.3H56.8V51.8H58.8ZM57.8 38.3H10.6V40.3H57.8V38.3ZM9.6 39.3V106H11.6V39.3H9.6ZM10.6 107H57.8V105H10.6V107ZM139.101 90.8L139.966 91.3006L140.505 90.3685L139.536 89.8997L139.101 90.8ZM126.901 84.9L127.336 83.9997L126.454 83.5732L126.01 84.4463L126.901 84.9ZM126.901 60.5L126.013 60.9603L126.464 61.8294L127.342 61.3974L126.901 60.5ZM139.101 54.5L139.542 55.3973L140.493 54.9296L139.971 54.0072L139.101 54.5ZM111.201 108.2C126.36 108.2 135.045 99.8101 139.966 91.3006L138.235 90.2994C133.556 98.3899 125.442 106.2 111.201 106.2V108.2ZM139.536 89.8997L127.336 83.9997L126.465 85.8003L138.665 91.7002L139.536 89.8997ZM126.01 84.4463C123.366 89.6391 117.694 93.6 111.201 93.6V95.6C118.507 95.6 124.836 91.1609 127.792 85.3537L126.01 84.4463ZM111.201 93.6C99.6989 93.6 91.3008 84.7947 91.3008 72.7H89.3008C89.3008 85.8053 98.5026 95.6 111.201 95.6V93.6ZM91.3008 72.7C91.3008 60.6053 99.6989 51.8 111.201 51.8V49.8C98.5026 49.8 89.3008 59.5947 89.3008 72.7H91.3008ZM111.201 51.8C117.686 51.8 123.365 55.854 126.013 60.9603L127.789 60.0397C124.836 54.346 118.515 49.8 111.201 49.8V51.8ZM127.342 61.3974L139.542 55.3973L138.659 53.6026L126.459 59.6026L127.342 61.3974ZM139.971 54.0072C135.142 45.4797 126.35 37.2 111.201 37.2V39.2C125.452 39.2 133.659 46.9203 138.231 54.9927L139.971 54.0072ZM111.201 37.2C90.6965 37.2 74.7008 51.6009 74.7008 72.7H76.7008C76.7008 52.799 91.7051 39.2 111.201 39.2V37.2ZM74.7008 72.7C74.7008 93.799 90.6965 108.2 111.201 108.2V106.2C91.7051 106.2 76.7008 92.6009 76.7008 72.7H74.7008ZM189.153 108.2C209.892 108.2 225.053 93.3656 225.053 72.7H223.053C223.053 92.2344 208.814 106.2 189.153 106.2V108.2ZM225.053 72.7C225.053 52.0344 209.892 37.2 189.153 37.2V39.2C208.814 39.2 223.053 53.1656 223.053 72.7H225.053ZM189.153 37.2C168.512 37.2 153.353 52.0362 153.353 72.7H155.353C155.353 53.1637 169.594 39.2 189.153 39.2V37.2ZM153.353 72.7C153.353 93.3637 168.512 108.2 189.153 108.2V106.2C169.594 106.2 155.353 92.2363 155.353 72.7H153.353ZM189.153 93.6C183.278 93.6 178.502 91.3388 175.186 87.6331C171.86 83.9169 169.953 78.6903 169.953 72.7H167.953C167.953 79.1097 169.996 84.8331 173.695 88.9669C177.404 93.1112 182.729 95.6 189.153 95.6V93.6ZM169.953 72.7C169.953 66.6582 171.861 61.4328 175.185 57.7305C178.499 54.0386 183.274 51.8 189.153 51.8V49.8C182.732 49.8 177.407 52.2614 173.697 56.3945C169.995 60.5172 167.953 66.2418 167.953 72.7H169.953ZM189.153 51.8C195.033 51.8 199.834 54.0392 203.174 57.7332C206.522 61.4366 208.453 66.6615 208.453 72.7H210.453C210.453 66.2385 208.384 60.5134 204.657 56.3918C200.922 52.2608 195.574 49.8 189.153 49.8V51.8ZM208.453 72.7C208.453 78.687 206.523 83.9132 203.173 87.6305C199.831 91.3382 195.029 93.6 189.153 93.6V95.6C195.577 95.6 200.925 93.1118 204.658 88.9695C208.383 84.8368 210.453 79.113 210.453 72.7H208.453ZM285.018 58L284.339 58.7338L285.147 59.4827L285.814 58.6049L285.018 58ZM292.918 47.6L293.714 48.2049L294.263 47.4819L293.597 46.8656L292.918 47.6ZM247.218 85.8L247.94 85.1078L247.104 84.2369L246.404 85.2195L247.218 85.8ZM239.518 96.6L238.704 96.0195L238.216 96.7031L238.805 97.3014L239.518 96.6ZM267.718 108.2C276.88 108.2 283.814 105.858 288.472 101.832C293.145 97.7917 295.418 92.1501 295.418 85.8H293.418C293.418 91.6499 291.34 96.7083 287.164 100.318C282.972 103.942 276.556 106.2 267.718 106.2V108.2ZM295.418 85.8C295.418 79.2709 292.887 74.7677 289.075 71.5812C285.314 68.4373 280.354 66.6138 275.536 65.274C273.12 64.6023 270.703 64.0429 268.47 63.5064C266.223 62.9664 264.17 62.4512 262.423 61.8605C260.663 61.2657 259.307 60.6234 258.402 59.8728C257.533 59.1518 257.118 58.3673 257.118 57.4H255.118C255.118 59.0827 255.9 60.3951 257.125 61.412C258.315 62.3993 259.951 63.1359 261.782 63.7551C263.626 64.3785 265.761 64.9125 268.003 65.451C270.258 65.993 272.628 66.5414 275 67.2009C279.757 68.5237 284.372 70.2564 287.792 73.1157C291.162 75.9323 293.418 79.8791 293.418 85.8H295.418ZM257.118 57.4C257.118 55.7184 257.816 54.3443 259.169 53.3582C260.556 52.3479 262.7 51.7 265.618 51.7V49.7C262.436 49.7 259.83 50.4021 257.992 51.7418C256.12 53.1057 255.118 55.0816 255.118 57.4H257.118ZM265.618 51.7C272.206 51.7 279.151 53.9304 284.339 58.7338L285.697 57.2662C280.085 52.0696 272.63 49.7 265.618 49.7V51.7ZM285.814 58.6049L293.714 48.2049L292.122 46.9951L284.222 57.3951L285.814 58.6049ZM293.597 46.8656C286.783 40.5684 277.728 37.3 266.918 37.3V39.3C277.308 39.3 285.853 42.4315 292.239 48.3344L293.597 46.8656ZM266.918 37.3C250.83 37.3 240.618 46.7967 240.618 58.6H242.618C242.618 48.2032 251.606 39.3 266.918 39.3V37.3ZM240.618 58.6C240.618 65.1786 243.155 69.6607 246.984 72.8027C250.757 75.8995 255.732 77.6525 260.558 78.953C262.975 79.6045 265.402 80.1539 267.633 80.6922C269.882 81.2347 271.936 81.7666 273.68 82.3928C275.435 83.0226 276.789 83.7181 277.694 84.5432C278.565 85.3365 279.018 86.2427 279.018 87.4H281.018C281.018 85.6073 280.271 84.1854 279.042 83.065C277.847 81.9764 276.201 81.1727 274.356 80.5104C272.5 79.8443 270.354 79.2911 268.102 78.748C265.834 78.2008 263.461 77.6642 261.078 77.022C256.304 75.735 251.679 74.0692 248.252 71.2567C244.881 68.4893 242.618 64.5714 242.618 58.6H240.618ZM279.018 87.4C279.018 88.9386 278.257 90.5004 276.562 91.7113C274.853 92.9321 272.175 93.8 268.418 93.8V95.8C272.461 95.8 275.583 94.8679 277.724 93.3387C279.879 91.7996 281.018 89.6614 281.018 87.4H279.018ZM268.418 93.8C259.529 93.8 252.48 89.8411 247.94 85.1078L246.496 86.4922C251.356 91.5589 258.907 95.8 268.418 95.8V93.8ZM246.404 85.2195L238.704 96.0195L240.332 97.1805L248.032 86.3805L246.404 85.2195ZM238.805 97.3014C245.211 103.81 254.676 108.2 267.718 108.2V106.2C255.16 106.2 246.225 101.99 240.231 95.8986L238.805 97.3014ZM345.802 106V107H346.802V106H345.802ZM345.802 78.7L344.963 78.1567L344.802 78.4046V78.7H345.802ZM371.302 39.3L372.142 39.8433L373.141 38.3H371.302V39.3ZM355.102 39.3V38.3H354.542L354.249 38.778L355.102 39.3ZM338.702 66.1L337.852 66.6266L338.708 68.0074L339.555 66.622L338.702 66.1ZM322.102 39.3L322.952 38.7734L322.659 38.3H322.102V39.3ZM305.902 39.3V38.3H304.056L305.065 39.8463L305.902 39.3ZM331.602 78.7H332.602V78.4027L332.44 78.1537L331.602 78.7ZM331.602 106H330.602V107H331.602V106ZM346.802 106V78.7H344.802V106H346.802ZM346.642 79.2433L372.142 39.8433L370.463 38.7567L344.963 78.1567L346.642 79.2433ZM371.302 38.3H355.102V40.3H371.302V38.3ZM354.249 38.778L337.849 65.578L339.555 66.622L355.955 39.822L354.249 38.778ZM339.552 65.5734L322.952 38.7734L321.252 39.8266L337.852 66.6266L339.552 65.5734ZM322.102 38.3H305.902V40.3H322.102V38.3ZM305.065 39.8463L330.765 79.2463L332.44 78.1537L306.74 38.7537L305.065 39.8463ZM330.602 78.7V106H332.602V78.7H330.602ZM331.602 107H345.802V105H331.602V107ZM426.502 58L425.823 58.7338L426.632 59.4827L427.299 58.6049L426.502 58ZM434.402 47.6L435.199 48.2049L435.748 47.4819L435.081 46.8656L434.402 47.6ZM388.702 85.8L389.424 85.1078L388.589 84.2369L387.888 85.2195L388.702 85.8ZM381.002 96.6L380.188 96.0195L379.701 96.7031L380.29 97.3014L381.002 96.6ZM409.202 108.2C418.364 108.2 425.298 105.858 429.956 101.832C434.63 97.7917 436.902 92.1501 436.902 85.8H434.902C434.902 91.6499 432.825 96.7083 428.648 100.318C424.457 103.942 418.041 106.2 409.202 106.2V108.2ZM436.902 85.8C436.902 79.2709 434.371 74.7677 430.559 71.5812C426.798 68.4373 421.838 66.6138 417.02 65.274C414.605 64.6023 412.187 64.0429 409.954 63.5064C407.707 62.9664 405.654 62.4512 403.907 61.8605C402.148 61.2657 400.791 60.6234 399.887 59.8728C399.018 59.1518 398.602 58.3673 398.602 57.4H396.602C396.602 59.0827 397.384 60.3951 398.609 61.412C399.799 62.3993 401.435 63.1359 403.266 63.7551C405.11 64.3785 407.246 64.9125 409.487 65.451C411.743 65.993 414.113 66.5414 416.484 67.2009C421.241 68.5237 425.856 70.2564 429.277 73.1157C432.646 75.9323 434.902 79.8791 434.902 85.8H436.902ZM398.602 57.4C398.602 55.7184 399.301 54.3443 400.654 53.3582C402.04 52.3479 404.184 51.7 407.102 51.7V49.7C403.921 49.7 401.314 50.4021 399.476 51.7418C397.604 53.1057 396.602 55.0816 396.602 57.4H398.602ZM407.102 51.7C413.691 51.7 420.635 53.9304 425.823 58.7338L427.182 57.2662C421.569 52.0696 414.114 49.7 407.102 49.7V51.7ZM427.299 58.6049L435.199 48.2049L433.606 46.9951L425.706 57.3951L427.299 58.6049ZM435.081 46.8656C428.268 40.5684 419.212 37.3 408.402 37.3V39.3C418.793 39.3 427.337 42.4315 433.724 48.3344L435.081 46.8656ZM408.402 37.3C392.314 37.3 382.102 46.7967 382.102 58.6H384.102C384.102 48.2032 393.09 39.3 408.402 39.3V37.3ZM382.102 58.6C382.102 65.1786 384.64 69.6607 388.468 72.8027C392.241 75.8995 397.217 77.6525 402.042 78.953C404.459 79.6045 406.886 80.1539 409.118 80.6922C411.367 81.2347 413.42 81.7666 415.165 82.3928C416.919 83.0226 418.273 83.7181 419.179 84.5432C420.049 85.3365 420.502 86.2427 420.502 87.4H422.502C422.502 85.6073 421.755 84.1854 420.526 83.065C419.331 81.9764 417.686 81.1727 415.84 80.5104C413.985 79.8443 411.838 79.2911 409.587 78.748C407.319 78.2008 404.945 77.6642 402.563 77.022C397.788 75.735 393.164 74.0692 389.737 71.2567C386.365 68.4893 384.102 64.5714 384.102 58.6H382.102ZM420.502 87.4C420.502 88.9386 419.741 90.5004 418.046 91.7113C416.337 92.9321 413.659 93.8 409.902 93.8V95.8C413.946 95.8 417.068 94.8679 419.209 93.3387C421.363 91.7996 422.502 89.6614 422.502 87.4H420.502ZM409.902 93.8C401.014 93.8 393.964 89.8411 389.424 85.1078L387.981 86.4922C392.841 91.5589 400.391 95.8 409.902 95.8V93.8ZM387.888 85.2195L380.188 96.0195L381.817 97.1805L389.517 86.3805L387.888 85.2195ZM380.29 97.3014C386.695 103.81 396.16 108.2 409.202 108.2V106.2C396.644 106.2 387.71 101.99 381.715 95.8986L380.29 97.3014ZM483.894 106V107H484.894V106H483.894ZM483.894 51.8V50.8H482.894V51.8H483.894ZM503.294 51.8V52.8H504.294V51.8H503.294ZM503.294 39.3H504.294V38.3H503.294V39.3ZM450.094 39.3V38.3H449.094V39.3H450.094ZM450.094 51.8H449.094V52.8H450.094V51.8ZM469.594 51.8H470.594V50.8H469.594V51.8ZM469.594 106H468.594V107H469.594V106ZM484.894 106V51.8H482.894V106H484.894ZM483.894 52.8H503.294V50.8H483.894V52.8ZM504.294 51.8V39.3H502.294V51.8H504.294ZM503.294 38.3H450.094V40.3H503.294V38.3ZM449.094 39.3V51.8H451.094V39.3H449.094ZM450.094 52.8H469.594V50.8H450.094V52.8ZM468.594 51.8V106H470.594V51.8H468.594ZM469.594 107H483.894V105H469.594V107ZM569.597 106V107H570.597V106H569.597ZM569.597 93.5H570.597V92.5H569.597V93.5ZM536.597 93.5H535.597V94.5H536.597V93.5ZM536.597 78.4V77.4H535.597V78.4H536.597ZM568.897 78.4V79.4H569.897V78.4H568.897ZM568.897 65.9H569.897V64.9H568.897V65.9ZM536.597 65.9H535.597V66.9H536.597V65.9ZM536.597 51.8V50.8H535.597V51.8H536.597ZM569.597 51.8V52.8H570.597V51.8H569.597ZM569.597 39.3H570.597V38.3H569.597V39.3ZM522.397 39.3V38.3H521.397V39.3H522.397ZM522.397 106H521.397V107H522.397V106ZM570.597 106V93.5H568.597V106H570.597ZM569.597 92.5H536.597V94.5H569.597V92.5ZM537.597 93.5V78.4H535.597V93.5H537.597ZM536.597 79.4H568.897V77.4H536.597V79.4ZM569.897 78.4V65.9H567.897V78.4H569.897ZM568.897 64.9H536.597V66.9H568.897V64.9ZM537.597 65.9V51.8H535.597V65.9H537.597ZM536.597 52.8H569.597V50.8H536.597V52.8ZM570.597 51.8V39.3H568.597V51.8H570.597ZM569.597 38.3H522.397V40.3H569.597V38.3ZM521.397 39.3V106H523.397V39.3H521.397ZM522.397 107H569.597V105H522.397V107ZM662.998 106V107H663.998V106H662.998ZM662.998 39.3H663.998V38.3H662.998V39.3ZM642.998 39.3V38.3H642.322L642.07 38.927L642.998 39.3ZM626.798 79.6L625.87 79.973L626.798 82.2811L627.726 79.973L626.798 79.6ZM610.598 39.3L611.526 38.927L611.273 38.3H610.598V39.3ZM590.698 39.3V38.3H589.698V39.3H590.698ZM590.698 106H589.698V107H590.698V106ZM604.898 106V107H605.898V106H604.898ZM604.898 59.3L605.825 58.9266L603.898 59.3H604.898ZM623.698 106L622.77 106.373L623.022 107H623.698V106ZM629.898 106V107H630.573L630.825 106.373L629.898 106ZM648.698 59.3H649.698L647.77 58.9266L648.698 59.3ZM648.698 106H647.698V107H648.698V106ZM663.998 106V39.3H661.998V106H663.998ZM662.998 38.3H642.998V40.3H662.998V38.3ZM642.07 38.927L625.87 79.227L627.726 79.973L643.925 39.673L642.07 38.927ZM627.726 79.227L611.526 38.927L609.67 39.673L625.87 79.973L627.726 79.227ZM610.598 38.3H590.698V40.3H610.598V38.3ZM589.698 39.3V106H591.698V39.3H589.698ZM590.698 107H604.898V105H590.698V107ZM605.898 106V59.3H603.898V106H605.898ZM603.97 59.6734L622.77 106.373L624.625 105.627L605.825 58.9266L603.97 59.6734ZM623.698 107H629.898V105H623.698V107ZM630.825 106.373L649.625 59.6734L647.77 58.9266L628.97 105.627L630.825 106.373ZM647.698 59.3V106H649.698V59.3H647.698ZM648.698 107H662.998V105H648.698V107Z" fill="url(#paint0_linear_3817_55783)"/>
</g>
<path fill-rule="evenodd" clip-rule="evenodd" d="M166.456 2C167.805 2 168.995 2.23581 170.024 2.70712C171.054 3.17874 171.93 3.79651 172.654 4.56085C173.377 5.32499 173.951 6.15027 174.376 7.03608C174.802 7.92209 175.085 8.78332 175.227 9.61976H174.466C174.324 8.84406 174.048 8.05327 173.638 7.2471C173.228 6.44113 172.683 5.6958 172.005 5.0113C171.326 4.32691 170.524 3.77565 169.599 3.35733C168.674 2.93921 167.626 2.73005 166.456 2.73005C164.889 2.73005 163.44 3.16541 162.109 4.03604C160.778 4.90697 159.707 6.18063 158.898 7.85734C158.089 9.53423 157.684 11.5817 157.684 14C157.684 16.4487 158.089 18.5097 158.898 20.1824C159.707 21.8556 160.778 23.1217 162.109 23.981C163.44 24.8405 164.889 25.27 166.456 25.27C167.626 25.27 168.674 25.0629 169.599 24.6483C170.524 24.2339 171.326 23.6863 172.005 23.0057C172.683 22.3253 173.228 21.5798 173.638 20.7699C174.048 19.9601 174.324 19.1636 174.466 18.3802H175.227C175.085 19.2015 174.802 20.0552 174.376 20.9411C173.951 21.827 173.377 22.654 172.654 23.4221C171.93 24.1902 171.054 24.8119 170.024 25.287C168.995 25.7622 167.805 26 166.456 26C164.576 26 162.924 25.4981 161.499 24.4943C160.075 23.4905 158.963 22.0875 158.165 20.2851C157.367 18.4829 156.968 16.3879 156.968 14C156.968 11.6122 157.367 9.51709 158.165 7.71479C158.963 5.9125 160.075 4.50942 161.499 3.50575C162.924 2.50188 164.576 2 166.456 2ZM16.2908 2.35878L22.2425 10.6437L27.9312 2.35878L37.5864 2.3588L43.3744 11.4032L49.1769 2.3588H55.0675L45.9783 16.5637V25.6976H40.7692V16.533L32.7597 3.98876L25.4025 14.1749L33.938 25.6976H27.8357L21.8144 17.3211L16.0563 25.6976H10L18.6203 13.7598L10.1958 2.35878H16.2908ZM90.8717 2.31938L106.535 24.3117H106.624V2.31938H107.34V25.6806H106.624L90.9613 3.68808H90.8717V25.6806H90.1557V2.31938H90.8717ZM134.638 2.31938L150.301 24.3117H150.39V2.31938H151.106V25.6806H150.39L134.727 3.68808H134.638V25.6806H133.922V2.31938H134.638ZM74.9306 2.31935V3.0494H63.3402V13.6349H73.8567V14.365H63.3402V25.6806H62.6241V2.31935H74.9306ZM82.2459 2.31931V25.6806H81.5299V2.31931H82.2459ZM121.123 2.31941L129.313 25.6806H128.552L125.782 17.7871H115.479L112.71 25.6806H111.949L120.139 2.31941H121.123ZM193.687 2.31935V3.0494H181.76V13.6349H193.015V14.365H181.76V24.9506H194V25.6806H181.044V2.31935H193.687ZM125.956 17.057L125.526 17.057L125.782 17.7871L125.956 17.7871V17.057ZM115.736 17.057L115.306 17.057V17.7871L115.479 17.7871L115.736 17.057ZM120.676 3.23197H120.586L115.736 17.057H125.526L120.676 3.23197Z" fill="white"/>
<path fill-rule="evenodd" clip-rule="evenodd" d="M13.7788 202.453H24.196C25.5406 202.453 26.6306 203.568 26.6306 204.945V212.095L34.193 198.306H24.5935C23.2489 198.306 22.1589 197.19 22.1589 195.814V186.029L13.7788 202.453ZM34.6001 197.563L34.5996 197.564L34.6001 197.563ZM25.7191 213.758C25.7192 213.757 25.7193 213.757 25.7195 213.757L25.7191 213.758ZM21.7826 183.537L12.1119 202.49C11.7733 203.153 12.2437 203.948 12.9752 203.948H24.196C24.7338 203.948 25.1699 204.394 25.1699 204.945V214.002C25.1699 215.028 26.5022 215.384 26.9929 214.489L35.874 198.295C36.2383 197.631 35.7692 196.81 35.0247 196.81H24.5935C24.0556 196.81 23.6196 196.364 23.6196 195.814V183.998C23.6196 182.956 22.254 182.613 21.7826 183.537Z" fill="url(#paint1_linear_3817_55783)"/>
<path d="M95.74 218C108.28 218 116.98 210.08 116.98 198.02C116.98 185.96 108.28 177.98 95.74 177.98H79.96V218H95.74ZM95.74 210.5H88.48V185.48H95.74C103.96 185.48 108.28 190.94 108.28 198.02C108.28 204.8 103.66 210.5 95.74 210.5ZM138.266 218.72C142.766 218.72 147.326 217.34 150.206 214.7L146.846 209.78C144.986 211.58 141.566 212.66 139.106 212.66C134.186 212.66 131.246 209.6 130.766 205.94H152.306V204.26C152.306 194.78 146.426 188.3 137.786 188.3C128.966 188.3 122.786 195.08 122.786 203.48C122.786 212.78 129.446 218.72 138.266 218.72ZM144.926 200.78H130.646C131.006 197.9 133.046 194.36 137.786 194.36C142.826 194.36 144.746 198.02 144.926 200.78ZM168.31 218V201.44H187.69V193.94H168.31V185.48H188.11V177.98H159.79V218H168.31ZM199.468 185.9C201.988 185.9 204.028 183.86 204.028 181.34C204.028 178.82 201.988 176.84 199.468 176.84C197.008 176.84 194.908 178.82 194.908 181.34C194.908 183.86 197.008 185.9 199.468 185.9ZM203.308 218V189.02H195.688V218H203.308Z" fill="white"/>
<path fill-rule="evenodd" clip-rule="evenodd" d="M24 287.106C26.1124 287.106 27.8248 285.403 27.8248 283.303C27.8248 281.203 26.1124 279.5 24 279.5C21.8876 279.5 20.1752 281.203 20.1752 283.303C20.1752 285.403 21.8876 287.106 24 287.106ZM13.3333 296.803C15.4457 296.803 17.1581 295.1 17.1581 293C17.1581 290.9 15.4457 289.197 13.3333 289.197C11.221 289.197 9.50857 290.9 9.50857 293C9.50857 295.1 11.221 296.803 13.3333 296.803ZM24 306.5C26.1124 306.5 27.8248 304.797 27.8248 302.697C27.8248 300.597 26.1124 298.894 24 298.894C21.8876 298.894 20.1752 300.597 20.1752 302.697C20.1752 304.797 21.8876 306.5 24 306.5ZM34.6667 296.803C36.779 296.803 38.4914 295.1 38.4914 293C38.4914 290.9 36.779 289.197 34.6667 289.197C32.5543 289.197 30.8419 290.9 30.8419 293C30.8419 295.1 32.5543 296.803 34.6667 296.803ZM24 288.606C26.9455 288.606 29.3333 286.232 29.3333 283.303C29.3333 280.374 26.9455 278 24 278C21.0545 278 18.6667 280.374 18.6667 283.303C18.6667 286.232 21.0545 288.606 24 288.606ZM13.3333 298.303C16.2789 298.303 18.6667 295.929 18.6667 293C18.6667 290.071 16.2789 287.697 13.3333 287.697C10.3878 287.697 8 290.071 8 293C8 295.929 10.3878 298.303 13.3333 298.303ZM29.3333 302.697C29.3333 305.626 26.9455 308 24 308C21.0545 308 18.6667 305.626 18.6667 302.697C18.6667 299.768 21.0545 297.394 24 297.394C26.9455 297.394 29.3333 299.768 29.3333 302.697ZM34.6667 298.303C37.6122 298.303 40 295.929 40 293C40 290.071 37.6122 287.697 34.6667 287.697C31.7211 287.697 29.3333 290.071 29.3333 293C29.3333 295.929 31.7211 298.303 34.6667 298.303Z" fill="url(#paint2_linear_3817_55783)"/>
<path d="M99.34 312.78C106.6 312.78 112.3 309.78 116.38 305.22V289.86H97.3V297.3H107.86V302.1C106.24 303.6 102.88 305.16 99.34 305.16C92.08 305.16 86.8 299.58 86.8 292.02C86.8 284.46 92.08 278.88 99.34 278.88C103.6 278.88 107.02 281.28 108.82 284.1L115.9 280.26C112.9 275.52 107.68 271.32 99.34 271.32C87.64 271.32 78.04 279.36 78.04 292.02C78.04 304.62 87.64 312.78 99.34 312.78ZM149.784 312V293.28C149.784 284.94 143.724 282.3 137.124 282.3C132.564 282.3 128.004 283.74 124.464 286.86L127.344 291.96C129.804 289.68 132.684 288.54 135.804 288.54C139.644 288.54 142.164 290.46 142.164 293.4V297.3C140.244 295.02 136.824 293.76 132.984 293.76C128.364 293.76 122.904 296.34 122.904 303.12C122.904 309.6 128.364 312.72 132.984 312.72C136.764 312.72 140.184 311.34 142.164 309V312H149.784ZM136.044 307.56C133.044 307.56 130.584 306 130.584 303.3C130.584 300.48 133.044 298.92 136.044 298.92C138.504 298.92 140.904 299.76 142.164 301.44V305.04C140.904 306.72 138.504 307.56 136.044 307.56ZM202.762 312V291.06C202.762 285.12 199.582 282.3 194.242 282.3C189.802 282.3 185.962 284.94 184.282 287.58C183.202 284.28 180.502 282.3 176.242 282.3C171.802 282.3 167.962 285.06 166.762 286.8V283.02H159.142V312H166.762V292.5C167.902 290.88 170.122 289.08 172.762 289.08C175.882 289.08 177.082 291 177.082 293.7V312H184.762V292.44C185.842 290.88 188.062 289.08 190.762 289.08C193.882 289.08 195.082 291 195.082 293.7V312H202.762ZM225.655 312.72C230.155 312.72 234.715 311.34 237.595 308.7L234.235 303.78C232.375 305.58 228.955 306.66 226.495 306.66C221.575 306.66 218.635 303.6 218.155 299.94H239.695V298.26C239.695 288.78 233.815 282.3 225.175 282.3C216.355 282.3 210.175 289.08 210.175 297.48C210.175 306.78 216.835 312.72 225.655 312.72ZM232.315 294.78H218.035C218.395 291.9 220.435 288.36 225.175 288.36C230.215 288.36 232.135 292.02 232.315 294.78ZM255.7 312V295.44H275.08V287.94H255.7V279.48H275.5V271.98H247.18V312H255.7ZM286.857 279.9C289.377 279.9 291.417 277.86 291.417 275.34C291.417 272.82 289.377 270.84 286.857 270.84C284.397 270.84 282.297 272.82 282.297 275.34C282.297 277.86 284.397 279.9 286.857 279.9ZM290.697 312V283.02H283.077V312H290.697Z" fill="white"/>
<path fill-rule="evenodd" clip-rule="evenodd" d="M24 371C24.5296 371 24.9589 371.426 24.9589 371.95C24.9589 376.34 26.1601 379.865 28.2302 382.275C30.2857 384.668 33.2696 386.05 37.0411 386.05C37.5707 386.05 38 386.475 38 387C38 387.525 37.5707 387.95 37.0411 387.95C33.1839 387.95 30.2202 388.99 28.2054 391.159C26.177 393.342 24.9589 396.832 24.9589 402.05C24.9589 402.574 24.5296 403 24 403C23.4704 403 23.0411 402.574 23.0411 402.05C23.0411 396.832 21.823 393.342 19.7946 391.159C17.7798 388.99 14.8161 387.95 10.9589 387.95C10.4293 387.95 10 387.525 10 387C10 386.475 10.4293 386.05 10.9589 386.05C14.7304 386.05 17.7143 384.668 19.7698 382.275C21.8399 379.865 23.0411 376.34 23.0411 371.95C23.0411 371.426 23.4704 371 24 371ZM24 378.46C23.3725 380.394 22.4432 382.095 21.2302 383.507C19.9512 384.996 18.3767 386.141 16.5549 386.896C18.3498 387.513 19.9194 388.487 21.2054 389.871C22.437 391.197 23.3715 392.86 24 394.87C24.6285 392.86 25.563 391.197 26.7946 389.871C28.0806 388.487 29.6502 387.513 31.4451 386.896C29.6233 386.141 28.0488 384.996 26.7698 383.507C25.5568 382.095 24.6275 380.394 24 378.46Z" fill="url(#paint3_linear_3817_55783)"/>
<path d="M115.78 406V365.98H107.26V391.12L88.72 365.98H79.96V406H88.48V379.9L107.56 406H115.78ZM133.991 406V389.44H153.371V381.94H133.991V373.48H153.791V365.98H125.471V406H133.991ZM179.368 406V373.48H191.008V365.98H159.088V373.48H170.788V406H179.368Z" fill="white"/>
<defs>
<filter id="filter0_d_3817_55783" x="0.599609" y="33.2" width="672.398" height="89" filterUnits="userSpaceOnUse" color-interpolation-filters="sRGB">
<feFlood flood-opacity="0" result="BackgroundImageFix"/>
<feColorMatrix in="SourceAlpha" type="matrix" values="0 0 0 0 0 0 0 0 0 0 0 0 0 0 0 0 0 0 127 0" result="hardAlpha"/>
<feOffset dy="5"/>
<feGaussianBlur stdDeviation="5"/>
<feComposite in2="hardAlpha" operator="out"/>
<feColorMatrix type="matrix" values="0 0 0 0 0 0 0 0 0 0 0 0 0 0 0 0 0 0 0.3 0"/>
<feBlend mode="normal" in2="BackgroundImageFix" result="effect1_dropShadow_3817_55783"/>
<feBlend mode="normal" in="SourceGraphic" in2="effect1_dropShadow_3817_55783" result="shape"/>
</filter>
<linearGradient id="paint0_linear_3817_55783" x1="337" y1="0" x2="337.007" y2="112" gradientUnits="userSpaceOnUse">
<stop stop-color="#F5F5F5"/>
<stop offset="1" stop-color="#4D4D4D" stop-opacity="0.67"/>
</linearGradient>
<linearGradient id="paint1_linear_3817_55783" x1="8.72727" y1="220.176" x2="43.0946" y2="215.852" gradientUnits="userSpaceOnUse">
<stop stop-color="#1052C8"/>
<stop offset="1" stop-color="#5FD8FF"/>
</linearGradient>
<linearGradient id="paint2_linear_3817_55783" x1="3.63636" y1="312.853" x2="48.7406" y2="304.782" gradientUnits="userSpaceOnUse">
<stop stop-color="#1052C8"/>
<stop offset="1" stop-color="#5FD8FF"/>
</linearGradient>
<linearGradient id="paint3_linear_3817_55783" x1="9.1592" y1="408.741" x2="47.881" y2="403.167" gradientUnits="userSpaceOnUse">
<stop stop-color="#1052C8"/>
<stop offset="1" stop-color="#5FD8FF"/>
</linearGradient>
</defs>
</svg>
