<svg width="277" height="180" viewBox="0 0 277 180" fill="none" xmlns="http://www.w3.org/2000/svg">
<g filter="url(#filter0_d_3763_57919)">
<path d="M14.92 46.96V45.96H13.92V46.96H14.92ZM14.92 127H13.92V128H14.92V127ZM31.96 112H30.96V113H31.96V112ZM31.96 61.96V60.96H30.96V61.96H31.96ZM46.48 128C59.2305 128 70.1077 123.971 77.8067 116.797C85.5126 109.616 89.96 99.3521 89.96 87.04H87.96C87.96 98.8479 83.7075 108.564 76.4433 115.333C69.1723 122.109 58.8096 126 46.48 126V128ZM89.96 87.04C89.96 74.7282 85.5129 64.4353 77.8083 57.2249C70.11 50.0202 59.2325 45.96 46.48 45.96V47.96C58.8075 47.96 69.1701 51.8798 76.4417 58.6851C83.7071 65.4846 87.96 75.2318 87.96 87.04H89.96ZM46.48 45.96H14.92V47.96H46.48V45.96ZM13.92 46.96V127H15.92V46.96H13.92ZM14.92 128H46.48V126H14.92V128ZM46.48 111H31.96V113H46.48V111ZM32.96 112V61.96H30.96V112H32.96ZM31.96 62.96H46.48V60.96H31.96V62.96ZM46.48 62.96C54.4679 62.96 60.4576 65.6058 64.4552 69.8736C68.4627 74.1521 70.56 80.1596 70.56 87.04H72.56C72.56 79.7604 70.3373 73.2279 65.9148 68.5064C61.4824 63.7742 54.9321 60.96 46.48 60.96V62.96ZM70.56 87.04C70.56 93.5944 68.3283 99.5797 64.2328 103.919C60.1461 108.248 54.1464 111 46.48 111V113C54.6536 113 61.1939 110.052 65.6872 105.291C70.1717 100.54 72.56 94.0456 72.56 87.04H70.56ZM156.613 120.4L157.289 121.137L157.927 120.552L157.439 119.836L156.613 120.4ZM149.893 110.56L150.719 109.996L150.05 109.017L149.197 109.841L149.893 110.56ZM117.733 102.88V101.88H116.593L116.741 103.01L117.733 102.88ZM160.813 102.88V103.88H161.813V102.88H160.813ZM146.053 92.56V93.56H147.12L147.051 92.4949L146.053 92.56ZM117.493 92.56L116.501 92.436L116.36 93.56H117.493V92.56ZM132.733 129.44C141.899 129.44 151.291 126.635 157.289 121.137L155.937 119.663C150.415 124.725 141.566 127.44 132.733 127.44V129.44ZM157.439 119.836L150.719 109.996L149.067 111.124L155.787 120.964L157.439 119.836ZM149.197 109.841C147.473 111.51 144.974 112.888 142.268 113.848C139.568 114.806 136.741 115.32 134.413 115.32V117.32C137.004 117.32 140.058 116.754 142.937 115.732C145.812 114.712 148.593 113.21 150.588 111.279L149.197 109.841ZM134.413 115.32C125.064 115.32 119.618 109.562 118.724 102.75L116.741 103.01C117.768 110.838 124.081 117.32 134.413 117.32V115.32ZM117.733 103.88H160.813V101.88H117.733V103.88ZM161.813 102.88V99.52H159.813V102.88H161.813ZM161.813 99.52C161.813 89.8343 158.807 81.6009 153.513 75.7773C148.211 69.9458 140.676 66.6 131.773 66.6V68.6C140.149 68.6 147.134 71.7342 152.033 77.1227C156.939 82.5191 159.813 90.2457 159.813 99.52H161.813ZM131.773 66.6C113.547 66.6 100.773 80.6421 100.773 97.96H102.773C102.773 81.6779 114.719 68.6 131.773 68.6V66.6ZM100.773 97.96C100.773 107.51 104.198 115.398 109.947 120.898C115.689 126.391 123.687 129.44 132.733 129.44V127.44C124.139 127.44 116.656 124.549 111.329 119.452C106.007 114.362 102.773 107.01 102.773 97.96H100.773ZM146.053 91.56H117.493V93.56H146.053V91.56ZM118.485 92.684C118.825 89.9681 119.956 86.9655 122.083 84.6577C124.187 82.3748 127.31 80.72 131.773 80.72V78.72C126.756 78.72 123.098 80.6052 120.613 83.3023C118.15 85.9745 116.881 89.3919 116.501 92.436L118.485 92.684ZM131.773 80.72C136.545 80.72 139.749 82.4408 141.814 84.7385C143.904 87.0632 144.887 90.0478 145.055 92.6251L147.051 92.4949C146.859 89.5522 145.742 86.1168 143.302 83.4015C140.837 80.6592 137.081 78.72 131.773 78.72V80.72ZM194.021 127V128H195.021V127H194.021ZM194.021 93.88V92.88H193.021V93.88H194.021ZM232.781 93.88V94.88H233.781V93.88H232.781ZM232.781 78.88H233.781V77.88H232.781V78.88ZM194.021 78.88H193.021V79.88H194.021V78.88ZM194.021 61.96V60.96H193.021V61.96H194.021ZM233.621 61.96V62.96H234.621V61.96H233.621ZM233.621 46.96H234.621V45.96H233.621V46.96ZM176.981 46.96V45.96H175.981V46.96H176.981ZM176.981 127H175.981V128H176.981V127ZM195.021 127V93.88H193.021V127H195.021ZM194.021 94.88H232.781V92.88H194.021V94.88ZM233.781 93.88V78.88H231.781V93.88H233.781ZM232.781 77.88H194.021V79.88H232.781V77.88ZM195.021 78.88V61.96H193.021V78.88H195.021ZM194.021 62.96H233.621V60.96H194.021V62.96ZM234.621 61.96V46.96H232.621V61.96H234.621ZM233.621 45.96H176.981V47.96H233.621V45.96ZM175.981 46.96V127H177.981V46.96H175.981ZM176.981 128H194.021V126H176.981V128ZM265.216 127V128H266.216V127H265.216ZM265.216 69.04H266.216V68.04H265.216V69.04ZM249.976 69.04V68.04H248.976V69.04H249.976ZM249.976 127H248.976V128H249.976V127ZM257.536 63.8C263.128 63.8 267.656 59.2723 267.656 53.68H265.656C265.656 58.1677 262.023 61.8 257.536 61.8V63.8ZM267.656 53.68C267.656 48.0705 263.111 43.68 257.536 43.68V45.68C262.041 45.68 265.656 49.2095 265.656 53.68H267.656ZM257.536 43.68C252.089 43.68 247.416 48.0621 247.416 53.68H249.416C249.416 49.2179 253.142 45.68 257.536 45.68V43.68ZM247.416 53.68C247.416 59.2808 252.072 63.8 257.536 63.8V61.8C253.159 61.8 249.416 58.1592 249.416 53.68H247.416ZM266.216 127V69.04H264.216V127H266.216ZM265.216 68.04H249.976V70.04H265.216V68.04ZM248.976 69.04V127H250.976V69.04H248.976ZM249.976 128H265.216V126H249.976V128Z" fill="url(#paint0_linear_3763_57919)"/>
</g>
<g filter="url(#filter1_d_3763_57919)">
<path d="M32.472 146L24.728 135.024L31.992 124.656H26.52L21.688 131.952L16.792 124.656H11.384L18.648 135.056L10.904 146H16.312L21.688 138.192L27.032 146H32.472ZM51.5385 146.384C57.2985 146.384 60.0825 143.44 60.0825 139.536C60.0825 131.568 47.8265 133.84 47.8265 130.448C47.8265 129.168 48.9145 128.304 50.8665 128.304C53.0425 128.304 55.3465 129.04 57.0745 130.64L59.6025 127.312C57.4905 125.36 54.6745 124.336 51.2825 124.336C46.2585 124.336 43.1865 127.28 43.1865 130.832C43.1865 138.864 55.4745 136.272 55.4745 140.048C55.4745 141.264 54.2585 142.416 51.7625 142.416C48.8185 142.416 46.4825 141.104 44.9785 139.536L42.5145 142.992C44.4985 145.008 47.4425 146.384 51.5385 146.384ZM81.3552 146L86.0592 130.544H81.8352L78.9552 140.944L75.5632 130.544H71.9472L68.5552 140.944L65.6752 130.544H61.4512L66.1552 146H70.5072L73.7712 135.472L77.0352 146H81.3552ZM102.045 146V136.016C102.045 131.568 98.813 130.16 95.293 130.16C92.861 130.16 90.429 130.928 88.541 132.592L90.077 135.312C91.389 134.096 92.925 133.488 94.589 133.488C96.637 133.488 97.981 134.512 97.981 136.08V138.16C96.957 136.944 95.133 136.272 93.085 136.272C90.621 136.272 87.709 137.648 87.709 141.264C87.709 144.72 90.621 146.384 93.085 146.384C95.101 146.384 96.925 145.648 97.981 144.4V146H102.045ZM94.717 143.632C93.117 143.632 91.805 142.8 91.805 141.36C91.805 139.856 93.117 139.024 94.717 139.024C96.029 139.024 97.309 139.472 97.981 140.368V142.288C97.309 143.184 96.029 143.632 94.717 143.632ZM115.548 146.384C119.516 146.384 122.396 143.408 122.396 138.256C122.396 133.104 119.516 130.16 115.548 130.16C113.66 130.16 111.964 130.992 110.78 132.496V130.544H106.716V151.888H110.78V144.016C112.028 145.616 113.724 146.384 115.548 146.384ZM114.268 142.768C112.956 142.768 111.452 141.968 110.78 141.008V135.536C111.452 134.544 112.956 133.776 114.268 133.776C116.604 133.776 118.172 135.6 118.172 138.256C118.172 140.944 116.604 142.768 114.268 142.768ZM153.24 146C151.736 144.496 150.392 143.088 149.112 141.712C150.328 140.08 151.32 138.256 152.088 136.56L148.824 135.056C148.44 136.304 147.768 137.808 146.872 139.184C146.296 138.48 145.688 137.776 145.08 137.008C144.536 136.368 143.864 135.568 143.224 134.704C145.848 133.488 148.472 132.112 148.472 128.848C148.472 126 145.88 124.336 142.872 124.336C139.32 124.336 136.76 126.576 136.76 129.456C136.76 130.896 137.336 132.496 138.168 134.064C135.736 135.28 133.592 136.976 133.592 140.208C133.592 144.336 136.728 146.384 140.632 146.384C142.904 146.384 144.856 145.616 146.456 144.4C147.064 145.04 147.608 145.584 148.056 146H153.24ZM141.208 143.184C139.448 143.184 137.912 141.904 137.912 139.824C137.912 138.352 138.648 137.36 139.768 136.56C140.472 137.552 141.208 138.512 141.912 139.376C142.424 140.016 143.32 141.04 144.28 142.096C143.352 142.768 142.296 143.184 141.208 143.184ZM140.824 129.552C140.824 128.24 141.816 127.28 143.064 127.28C144.12 127.28 144.952 127.952 144.952 129.072C144.952 130.64 143.544 131.568 141.752 132.432C141.208 131.408 140.824 130.416 140.824 129.552ZM175.587 146V137.264L183.747 124.656H178.563L173.315 133.232L168.003 124.656H162.819L171.043 137.264V146H175.587ZM199.727 146V138.416H205.167C209.775 138.416 212.335 135.248 212.335 131.536C212.335 127.792 209.807 124.656 205.167 124.656H195.183V146H199.727ZM204.559 134.416H199.727V128.656H204.559C206.351 128.656 207.695 129.744 207.695 131.536C207.695 133.296 206.351 134.416 204.559 134.416ZM222.333 146.384C227.453 146.384 230.525 142.672 230.525 138.256C230.525 133.872 227.453 130.16 222.333 130.16C217.245 130.16 214.173 133.872 214.173 138.256C214.173 142.672 217.245 146.384 222.333 146.384ZM222.333 142.768C219.805 142.768 218.397 140.688 218.397 138.256C218.397 135.856 219.805 133.776 222.333 133.776C224.861 133.776 226.301 135.856 226.301 138.256C226.301 140.688 224.861 142.768 222.333 142.768ZM241.348 146.384C246.468 146.384 249.54 142.672 249.54 138.256C249.54 133.872 246.468 130.16 241.348 130.16C236.26 130.16 233.188 133.872 233.188 138.256C233.188 142.672 236.26 146.384 241.348 146.384ZM241.348 142.768C238.82 142.768 237.412 140.688 237.412 138.256C237.412 135.856 238.82 133.776 241.348 133.776C243.876 133.776 245.316 135.856 245.316 138.256C245.316 140.688 243.876 142.768 241.348 142.768ZM257.259 146V124.656H253.195V146H257.259Z" fill="white"/>
</g>
<defs>
<filter id="filter0_d_3763_57919" x="4.91992" y="39.6799" width="271.735" height="103.76" filterUnits="userSpaceOnUse" color-interpolation-filters="sRGB">
<feFlood flood-opacity="0" result="BackgroundImageFix"/>
<feColorMatrix in="SourceAlpha" type="matrix" values="0 0 0 0 0 0 0 0 0 0 0 0 0 0 0 0 0 0 127 0" result="hardAlpha"/>
<feOffset dy="5"/>
<feGaussianBlur stdDeviation="5"/>
<feComposite in2="hardAlpha" operator="out"/>
<feColorMatrix type="matrix" values="0 0 0 0 0 0 0 0 0 0 0 0 0 0 0 0 0 0 0.5 0"/>
<feBlend mode="normal" in2="BackgroundImageFix" result="effect1_dropShadow_3763_57919"/>
<feBlend mode="normal" in="SourceGraphic" in2="effect1_dropShadow_3763_57919" result="shape"/>
</filter>
<filter id="filter1_d_3763_57919" x="0.904297" y="119.336" width="266.354" height="47.552" filterUnits="userSpaceOnUse" color-interpolation-filters="sRGB">
<feFlood flood-opacity="0" result="BackgroundImageFix"/>
<feColorMatrix in="SourceAlpha" type="matrix" values="0 0 0 0 0 0 0 0 0 0 0 0 0 0 0 0 0 0 127 0" result="hardAlpha"/>
<feOffset dy="5"/>
<feGaussianBlur stdDeviation="5"/>
<feComposite in2="hardAlpha" operator="out"/>
<feColorMatrix type="matrix" values="0 0 0 0 0 0 0 0 0 0 0 0 0 0 0 0 0 0 0.5 0"/>
<feBlend mode="normal" in2="BackgroundImageFix" result="effect1_dropShadow_3763_57919"/>
<feBlend mode="normal" in="SourceGraphic" in2="effect1_dropShadow_3763_57919" result="shape"/>
</filter>
<linearGradient id="paint0_linear_3763_57919" x1="140" y1="42.5" x2="139.746" y2="136.901" gradientUnits="userSpaceOnUse">
<stop stop-color="#EFEEEE"/>
<stop offset="1" stop-color="#5E5E5E" stop-opacity="0.5"/>
</linearGradient>
</defs>
</svg>
