<svg width="180" height="80" viewBox="0 0 180 80" fill="none" xmlns="http://www.w3.org/2000/svg">
<path d="M129.737 34.4866C129.737 34.4006 129.75 34.3269 129.75 34.2654C129.75 33.4792 129.75 32.6929 129.75 31.8821C129.455 31.7224 129.16 31.575 128.865 31.4153C128.865 31.3047 128.865 31.2187 128.865 31.1204C129.258 30.9116 131.556 30.3465 131.864 30.3956C131.864 30.4939 131.864 30.5922 131.864 30.7027C131.864 33.9214 131.864 37.1279 131.864 40.3466C131.864 40.494 131.864 40.6415 131.888 40.7889C131.925 41.0469 132.011 41.1329 132.269 41.1697C132.355 41.182 132.454 41.1943 132.54 41.2066C132.626 41.2189 132.724 41.2311 132.822 41.2434C132.822 41.3909 132.822 41.526 132.822 41.7103C131.802 41.8823 130.794 42.1771 129.713 42.2631C129.713 41.8208 129.713 41.4031 129.713 40.9609C129.651 41.0223 129.615 41.0714 129.565 41.1206C129.012 41.7963 128.324 42.2263 127.427 42.2385C126.198 42.2508 125.313 41.698 124.76 40.6046C124.428 39.9412 124.317 39.2287 124.317 38.5038C124.317 37.7544 124.428 37.0173 124.723 36.3171C125.313 34.9043 126.591 34.0197 128.127 34.032C128.594 34.032 128.902 34.0074 129.737 34.4866ZM129.75 38.2458C129.75 37.7421 129.75 37.2385 129.75 36.7225C129.75 36.7102 129.75 36.6856 129.75 36.6733C129.725 36.4031 129.737 36.1205 129.676 35.8625C129.565 35.322 129.307 34.9043 128.73 34.7446C128.14 34.5849 127.451 34.8183 127.046 35.3465C126.8 35.6659 126.64 36.0345 126.554 36.4276C126.358 37.2753 126.345 38.1353 126.53 38.9952C126.64 39.4989 126.825 39.9781 127.193 40.3712C127.783 41.0223 128.853 41.1329 129.565 40.6292C129.701 40.5309 129.762 40.4326 129.762 40.2606C129.737 39.5849 129.75 38.9092 129.75 38.2458Z" fill="white"/>
<path d="M92.8787 32.1155C92.8787 31.919 92.8787 31.7593 92.8787 31.5873C94.0217 31.5873 95.1524 31.5873 96.3077 31.5873C96.3077 31.7593 96.3077 31.9312 96.3077 32.1155C96.1233 32.1524 95.9267 32.1892 95.7301 32.2261C95.2999 32.3244 95.1647 32.4718 95.1401 32.9018C95.1278 33.0615 95.1278 33.2335 95.1278 33.4055C95.1278 35.0025 95.1278 36.6119 95.1278 38.209C95.1278 38.7618 95.1032 39.3024 94.9312 39.8306C94.5871 40.8749 93.9111 41.5874 92.8787 41.9437C91.5145 42.4105 90.1625 42.3614 88.8352 41.8086C87.729 41.3417 87.1391 40.4572 86.9548 39.2901C86.8933 38.9338 86.881 38.5653 86.881 38.1967C86.8687 36.5873 86.881 34.978 86.881 33.3686C86.881 33.1966 86.881 33.0246 86.8687 32.8404C86.8441 32.4595 86.7089 32.2998 86.3402 32.2138C86.1313 32.1647 85.9224 32.1401 85.6888 32.0909C85.6888 31.919 85.6888 31.7592 85.6888 31.575C87.2251 31.575 88.7369 31.575 90.2731 31.575C90.2731 31.747 90.2731 31.9067 90.2731 32.0909C90.0765 32.1278 89.8676 32.1647 89.6709 32.2015C89.2653 32.2875 89.1179 32.4472 89.1056 32.8649C89.0933 33.5897 89.0933 34.3146 89.0933 35.0271C89.0933 36.2434 89.0933 37.4719 89.1178 38.6881C89.1301 39.1304 89.2285 39.5604 89.4251 39.9658C89.7447 40.6415 90.2977 41.0346 91.0229 41.1329C91.5759 41.2066 92.1413 41.182 92.6698 40.9977C93.5301 40.6906 94.0094 40.0395 94.1815 39.1672C94.2429 38.8355 94.2798 38.4915 94.2798 38.1598C94.2921 36.5013 94.2798 34.8428 94.2798 33.172C94.2798 32.4472 94.0831 32.2384 93.358 32.1524C93.1982 32.1524 93.0508 32.1401 92.8787 32.1155Z" fill="white"/>
<path d="M79.3839 33.9829C79.3839 34.462 79.3839 34.9043 79.3839 35.3711C79.4453 35.3097 79.5068 35.2605 79.556 35.1991C79.9984 34.7323 80.49 34.3514 81.1045 34.1426C81.7191 33.9337 82.3459 33.9092 82.9727 34.118C83.6364 34.3391 84.0051 34.8306 84.1526 35.4817C84.2263 35.8257 84.2632 36.1819 84.2632 36.5382C84.2755 37.9141 84.2632 39.2901 84.2632 40.6783C84.2632 40.7643 84.2632 40.8503 84.2632 40.924C84.2755 41.2926 84.4106 41.4523 84.7794 41.5137C84.9146 41.5383 85.0375 41.5506 85.1849 41.5751C85.1849 41.7348 85.1849 41.8946 85.1849 42.0543C83.8822 42.0543 82.5794 42.0543 81.2643 42.0543C81.2643 41.8946 81.2643 41.7348 81.2643 41.5629C81.4118 41.5383 81.5593 41.526 81.7068 41.4891C82.014 41.4277 82.1369 41.2803 82.1369 40.9732C82.1369 39.4252 82.1615 37.865 82.1246 36.3171C82.1124 35.4817 81.633 35.236 80.9202 35.2605C80.3302 35.2728 79.8386 35.5308 79.347 35.8625C79.347 35.9485 79.347 36.0222 79.347 36.1082C79.347 37.6562 79.347 39.2164 79.347 40.7643C79.347 40.8503 79.347 40.9486 79.3593 41.0346C79.3716 41.2557 79.4822 41.4154 79.7034 41.4646C79.8755 41.5014 80.0476 41.526 80.2319 41.5629C80.2319 41.7103 80.2319 41.87 80.2319 42.042C78.9291 42.042 77.6387 42.042 76.3113 42.042C76.3113 41.8823 76.3113 41.7348 76.3113 41.5629C76.4711 41.5383 76.6186 41.526 76.7783 41.4891C77.0979 41.4277 77.2331 41.2803 77.2331 40.9609C77.2331 39.1918 77.2331 37.4227 77.2331 35.6537C77.2331 35.6414 77.2331 35.6414 77.2208 35.5922C77.0119 35.4694 76.7906 35.3342 76.5571 35.2114C76.385 35.1254 76.299 35.0148 76.3728 34.7937C76.4219 34.7691 76.4834 34.7446 76.5571 34.72C77.3314 34.4866 78.118 34.2409 78.8923 34.0074C79.0521 34.0074 79.2241 34.0074 79.3839 33.9829Z" fill="white"/>
<path d="M100.72 41.5874C100.72 41.7471 100.72 41.9068 100.72 42.0788C99.4049 42.0788 98.1144 42.0788 96.7993 42.0788C96.7993 41.9191 96.7993 41.7717 96.7993 41.5874C96.9468 41.5628 97.1066 41.5506 97.2541 41.5137C97.5736 41.4523 97.7211 41.3049 97.7211 40.9977C97.7211 39.2164 97.7211 37.4473 97.7211 35.6414C97.4876 35.5062 97.2664 35.3588 97.0205 35.236C96.8362 35.1377 96.7747 35.0271 96.8608 34.806C97.2541 34.6831 97.6474 34.5603 98.0529 34.4374C98.4954 34.3023 98.9256 34.1672 99.368 34.0443C99.5278 33.9952 99.6876 33.9952 99.8596 33.9829C99.8596 34.462 99.8596 34.9043 99.8596 35.3711C99.9948 35.236 100.13 35.1131 100.253 34.9903C100.966 34.3146 101.801 33.946 102.797 34.0074C103.793 34.0689 104.432 34.6094 104.628 35.5922C104.69 35.9116 104.714 36.2311 104.714 36.5505C104.727 37.951 104.714 39.3392 104.714 40.7397C104.714 40.8257 104.714 40.924 104.714 41.01C104.739 41.3171 104.874 41.4646 105.169 41.5137C105.317 41.5383 105.464 41.5628 105.624 41.5874C105.624 41.7471 105.624 41.8945 105.624 42.0665C104.321 42.0665 103.018 42.0665 101.703 42.0665C101.703 41.9068 101.703 41.7471 101.703 41.5874C101.851 41.5628 101.986 41.5506 102.121 41.526C102.453 41.4646 102.588 41.3171 102.588 40.9854C102.588 39.4498 102.6 37.9141 102.576 36.3785C102.563 35.58 102.133 35.236 101.322 35.2974C100.757 35.3342 100.314 35.5185 99.7982 35.8994C99.7982 35.9731 99.7982 36.0714 99.7982 36.1574C99.7982 37.7053 99.7982 39.2409 99.7982 40.7889C99.7982 40.8626 99.7982 40.9363 99.7982 41.01C99.8105 41.3171 99.9334 41.4646 100.241 41.526C100.425 41.5506 100.572 41.5628 100.72 41.5874Z" fill="white"/>
<path d="M61.5383 34.7323C61.3539 34.7323 61.1819 34.7323 60.9852 34.7323C60.9484 34.6094 60.9238 34.4866 60.8746 34.3637C60.7271 33.9829 60.6042 33.5898 60.4076 33.2458C59.535 31.7347 57.3596 31.7593 56.3641 32.9386C55.8356 33.5652 55.5652 34.29 55.4177 35.0763C55.1719 36.5136 55.2088 37.9387 55.6881 39.3269C55.9339 40.0518 56.3272 40.6783 56.954 41.1329C57.8758 41.784 59.535 41.8208 60.4199 40.58C60.8009 40.0518 61.0221 39.4621 61.2065 38.8478C61.231 38.7495 61.2556 38.6635 61.2925 38.5407C61.4891 38.5407 61.6858 38.5407 61.907 38.5407C61.8947 38.7987 61.8824 39.0444 61.8579 39.2901C61.8087 39.8798 61.7595 40.4695 61.7227 41.0469C61.7104 41.268 61.6243 41.4031 61.4277 41.5137C60.7026 41.8945 59.9406 42.1157 59.1294 42.2017C58.2691 42.3 57.421 42.2631 56.573 42.0543C54.5082 41.5383 53.2054 39.9781 52.9596 37.9019C52.8367 36.8822 52.9105 35.8748 53.2669 34.9043C53.9552 33.0001 55.3071 31.833 57.3227 31.5013C58.6378 31.2801 59.9037 31.4767 61.1081 32.0664C61.2065 32.1155 61.3171 32.1647 61.4031 32.2384C61.4646 32.2875 61.526 32.3612 61.526 32.4349C61.5383 33.1598 61.5506 33.8969 61.5506 34.6217C61.5752 34.6463 61.5629 34.6708 61.5383 34.7323Z" fill="white"/>
<path d="M66.9215 42.2508C65.6802 42.2262 64.6723 41.8823 63.8981 40.9732C63.3941 40.3835 63.1238 39.6955 63.0377 38.9338C62.9148 37.8896 63.05 36.8699 63.5785 35.9485C64.2791 34.7077 65.3606 34.0566 66.7863 34.0074C67.8555 33.9706 68.8265 34.2654 69.6131 35.0148C70.2153 35.5922 70.5594 36.3171 70.6946 37.1279C70.8667 38.1967 70.7561 39.2409 70.2399 40.1992C69.527 41.5506 68.3717 42.2017 66.9215 42.2508ZM68.5561 38.4055C68.4946 37.7913 68.4455 37.1893 68.3595 36.575C68.2857 36.0468 68.1259 35.5431 67.7941 35.1008C67.2656 34.3883 66.3193 34.3883 65.8153 35.1131C65.6433 35.3588 65.5081 35.6537 65.4343 35.9485C65.1025 37.3245 65.164 38.7004 65.4712 40.0641C65.5695 40.4695 65.717 40.8503 65.9874 41.182C66.5159 41.8454 67.4254 41.8454 67.917 41.1451C68.0645 40.9363 68.1751 40.7029 68.2611 40.4572C68.4823 39.8061 68.5192 39.1058 68.5561 38.4055Z" fill="white"/>
<path d="M141.893 38.4301C141.905 37.1893 142.175 36.1574 142.913 35.2974C143.613 34.4743 144.523 34.0566 145.592 33.9952C146.489 33.946 147.325 34.1426 148.075 34.6463C148.96 35.2605 149.439 36.1328 149.599 37.177C149.771 38.2704 149.623 39.3392 149.07 40.3098C148.37 41.526 147.3 42.1648 145.887 42.2262C145.137 42.2631 144.424 42.1157 143.773 41.7594C142.741 41.1943 142.175 40.2975 141.966 39.1549C141.917 38.8847 141.905 38.5898 141.893 38.4301ZM147.46 38.3933C147.399 37.779 147.35 37.177 147.264 36.5628C147.19 36.0468 147.03 35.5431 146.71 35.1131C146.17 34.376 145.211 34.376 144.707 35.1377C144.547 35.3834 144.412 35.6659 144.351 35.9485C144.019 37.3122 144.08 38.6758 144.388 40.0395C144.486 40.4572 144.633 40.8503 144.904 41.182C145.42 41.8454 146.329 41.8331 146.821 41.1574C146.969 40.9486 147.091 40.7029 147.177 40.4449C147.386 39.7938 147.423 39.0935 147.46 38.3933Z" fill="white"/>
<path d="M123.211 39.5972C123.297 39.6464 123.359 39.6832 123.433 39.7201C123.371 40.1132 123.211 40.4695 122.99 40.7889C122.376 41.7348 121.478 42.2017 120.348 42.2385C119.315 42.2631 118.393 41.9683 117.656 41.2189C117.103 40.6537 116.783 39.9658 116.661 39.1918C116.476 38.037 116.599 36.919 117.189 35.8871C117.951 34.5603 119.094 33.8969 120.63 34.0074C122.412 34.1426 123.248 35.3711 123.346 36.8208C123.359 37.0296 123.346 37.2507 123.346 37.4964C121.724 37.4964 120.126 37.4964 118.504 37.4964C118.455 37.951 118.504 38.3687 118.615 38.7741C118.774 39.3884 119.057 39.9166 119.549 40.322C120.397 41.01 121.958 40.9486 122.781 40.0518C122.929 39.9166 123.064 39.7569 123.211 39.5972ZM121.503 36.8822C121.478 36.5996 121.466 36.3539 121.441 36.1082C121.417 35.9239 121.392 35.7397 121.319 35.58C121.22 35.3465 121.122 35.1008 120.95 34.9166C120.483 34.4129 119.659 34.4743 119.192 35.0394C118.75 35.5677 118.615 36.2065 118.541 36.8945C119.524 36.8822 120.495 36.8822 121.503 36.8822Z" fill="white"/>
<path d="M111.658 34.8551C111.339 34.8551 111.056 34.8551 110.773 34.8551C110.687 34.548 110.7 34.5111 110.946 34.3883C111.818 33.946 112.531 33.2949 113.084 32.4964C113.256 32.2384 113.44 32.1647 113.76 32.2384C113.76 32.8649 113.76 33.4915 113.76 34.1549C114.424 34.1549 115.05 34.1549 115.702 34.1549C115.702 34.4006 115.702 34.6217 115.702 34.8674C115.063 34.8674 114.436 34.8674 113.772 34.8674C113.772 34.978 113.772 35.064 113.772 35.1623C113.772 36.6856 113.772 38.2213 113.772 39.7446C113.772 39.8921 113.785 40.0395 113.797 40.1869C113.895 40.9977 114.461 41.1943 115.1 41.0592C115.382 40.9977 115.653 40.8503 115.948 40.7275C115.985 40.7889 116.046 40.8749 116.107 40.9609C115.616 41.7348 114.928 42.1771 114.018 42.2508C113.637 42.2877 113.256 42.2508 112.887 42.1157C112.15 41.8454 111.806 41.268 111.695 40.5309C111.658 40.2729 111.646 40.0149 111.646 39.7569C111.646 38.2336 111.646 36.7225 111.646 35.1991C111.658 35.0885 111.658 34.9903 111.658 34.8551Z" fill="white"/>
<path d="M71.6287 42.0788C71.6287 41.9068 71.6287 41.7594 71.6287 41.5997C71.7885 41.5751 71.9482 41.5506 72.108 41.526C72.4153 41.4646 72.5627 41.3171 72.5627 40.9977C72.5627 39.2409 72.5627 37.4842 72.5627 35.7151C72.5627 35.7028 72.5505 35.6782 72.5505 35.6414C72.3415 35.5185 72.1203 35.3711 71.8868 35.2483C71.7147 35.1623 71.6287 35.0517 71.7147 34.806C72.6734 34.548 73.6197 34.1426 74.689 33.946C74.689 34.118 74.689 34.2163 74.689 34.3269C74.689 36.4522 74.689 38.5775 74.689 40.7029C74.689 41.3909 74.7504 41.4646 75.4264 41.5628C75.4879 41.5751 75.537 41.5751 75.6108 41.5874C75.6108 41.7471 75.6108 41.8945 75.6108 42.0665C74.2711 42.0788 72.956 42.0788 71.6287 42.0788Z" fill="white"/>
<path d="M110.294 41.5874C110.294 41.7471 110.294 41.9068 110.294 42.0665C108.967 42.0665 107.664 42.0665 106.337 42.0665C106.337 41.8945 106.337 41.7471 106.337 41.5874C106.509 41.5628 106.656 41.5506 106.816 41.5137C107.123 41.4523 107.258 41.2926 107.271 40.9854C107.271 39.2287 107.271 37.4842 107.271 35.7274C107.271 35.7028 107.258 35.6782 107.258 35.6291C107.037 35.5062 106.816 35.3588 106.582 35.236C106.41 35.15 106.337 35.0271 106.41 34.806C106.546 34.7691 106.693 34.72 106.841 34.6708C107.517 34.462 108.18 34.2409 108.856 34.0443C109.004 33.9952 109.176 33.9952 109.385 33.9706C109.385 34.118 109.385 34.2286 109.385 34.3269C109.385 36.4645 109.385 38.5898 109.385 40.7275C109.385 41.3786 109.446 41.4523 110.085 41.5506C110.134 41.5628 110.208 41.5751 110.294 41.5874Z" fill="white"/>
<path d="M140.233 33.9706C140.233 34.1303 140.233 34.2409 140.233 34.3391C140.233 36.4645 140.233 38.5898 140.233 40.7152C140.233 41.3786 140.295 41.4523 140.971 41.5506C141.032 41.5628 141.081 41.5628 141.167 41.5751C141.167 41.7348 141.167 41.8823 141.167 42.0543C139.852 42.0543 138.55 42.0543 137.21 42.0543C137.21 41.8946 137.21 41.7471 137.21 41.5751C137.357 41.5506 137.505 41.5383 137.64 41.5137C137.984 41.4523 138.132 41.3049 138.132 40.9609C138.132 39.2041 138.132 37.4596 138.132 35.7028C138.132 35.6905 138.132 35.6659 138.119 35.6168C137.898 35.494 137.677 35.3465 137.431 35.2237C137.247 35.1254 137.198 35.0025 137.271 34.7937C137.652 34.6708 138.046 34.548 138.439 34.4251C138.857 34.29 139.275 34.1549 139.705 34.032C139.852 34.0074 140.012 34.0074 140.233 33.9706Z" fill="white"/>
<path d="M134.949 42.2385C134.211 42.2385 133.633 41.6734 133.633 40.9363C133.633 40.1992 134.199 39.6218 134.936 39.6218C135.674 39.6218 136.239 40.1992 136.239 40.9363C136.239 41.6734 135.674 42.2385 134.949 42.2385Z" fill="white"/>
<path d="M53.0702 48.8848C53.0702 48.8848 66.6265 48.9463 73.3493 49.0077L73.4231 48.5654L53.0702 48.8848Z" fill="white"/>
<path d="M149.058 48.9586C149.058 48.9586 135.502 49.02 128.779 49.0814L128.705 48.6392L149.058 48.9586Z" fill="white"/>
<path d="M116.513 50.8013C116.353 50.8013 116.23 50.8013 116.095 50.8013C116.083 50.703 116.083 50.617 116.083 50.531C116.083 50.0642 116.083 49.5974 116.083 49.1305C116.083 49.0323 116.083 48.934 116.071 48.8357C116.046 48.4426 115.874 48.2214 115.567 48.16C115.173 48.0863 114.817 48.2337 114.682 48.59C114.596 48.7988 114.571 49.0445 114.559 49.2657C114.547 49.6834 114.559 50.1011 114.559 50.5065C114.559 50.5925 114.547 50.6908 114.547 50.789C114.411 50.789 114.288 50.789 114.141 50.789C114.141 49.7939 114.141 48.8111 114.141 47.816C114.215 47.8037 114.276 47.8037 114.338 47.7914C114.399 47.7914 114.448 47.7914 114.522 47.8037C114.534 47.902 114.559 48.0003 114.571 48.1354C114.829 47.8529 115.124 47.7055 115.481 47.7177C115.849 47.73 116.132 47.8897 116.341 48.2214C116.378 48.1846 116.427 48.16 116.452 48.1231C116.783 47.7423 117.201 47.644 117.668 47.7669C118.135 47.8897 118.406 48.2214 118.43 48.676C118.467 49.364 118.443 50.0642 118.443 50.7768C118.32 50.7768 118.197 50.7768 118.062 50.7768C118.062 50.6785 118.049 50.5925 118.049 50.5065C118.049 50.0274 118.049 49.5482 118.049 49.0568C118.049 48.9463 118.037 48.8357 118.025 48.7374C117.963 48.3566 117.754 48.1477 117.386 48.1231C117.005 48.0986 116.697 48.2829 116.599 48.6268C116.55 48.7988 116.525 48.9831 116.525 49.1674C116.513 49.6097 116.525 50.0519 116.525 50.4819C116.513 50.5925 116.513 50.6908 116.513 50.8013Z" fill="white"/>
<path d="M88.5894 50.3222C88.5771 50.4942 88.5648 50.6293 88.5648 50.789C88.4296 50.789 88.3067 50.789 88.1715 50.789C88.1715 49.4008 88.1715 48.0249 88.1715 46.6121C88.2944 46.6121 88.405 46.5998 88.5771 46.5875C88.5771 47.1526 88.5771 47.6932 88.5771 48.246C88.5894 48.246 88.6139 48.2583 88.6262 48.2583C88.9458 47.8897 89.3391 47.6932 89.8307 47.7177C90.2608 47.7423 90.6173 47.902 90.9122 48.2091C91.4776 48.8357 91.4653 49.7939 90.8877 50.3959C90.2609 51.047 89.3882 51.0225 88.5894 50.3222ZM90.9 49.2902C90.9 48.6268 90.3838 48.1232 89.7324 48.1354C89.081 48.1477 88.5894 48.6514 88.5894 49.3025C88.5894 49.9659 89.0933 50.4696 89.7447 50.4696C90.4083 50.4696 90.9 49.9659 90.9 49.2902Z" fill="white"/>
<path d="M139.164 33.1229C138.464 33.1229 137.923 32.6069 137.923 31.9312C137.923 31.2556 138.439 30.7519 139.127 30.7396C139.828 30.7273 140.369 31.2433 140.381 31.919C140.393 32.5824 139.852 33.1106 139.164 33.1229Z" fill="white"/>
<path d="M108.291 33.1229C107.59 33.1229 107.062 32.6069 107.062 31.919C107.062 31.2556 107.59 30.7396 108.279 30.7396C108.979 30.7396 109.52 31.2433 109.52 31.919C109.532 32.5946 108.991 33.1229 108.291 33.1229Z" fill="white"/>
<path d="M73.5829 33.1229C72.8946 33.1229 72.3538 32.5946 72.3538 31.919C72.3538 31.2556 72.8823 30.7396 73.5706 30.7396C74.2711 30.7396 74.8119 31.2556 74.8119 31.9312C74.8242 32.5946 74.2834 33.1229 73.5829 33.1229Z" fill="white"/>
<path d="M108.856 50.8013C108.721 50.8013 108.61 50.8013 108.463 50.8013C108.463 50.6416 108.463 50.4819 108.463 50.3222C108.106 50.6908 107.713 50.8996 107.222 50.8873C106.779 50.875 106.398 50.703 106.103 50.3713C105.525 49.7202 105.587 48.7006 106.226 48.1354C106.755 47.6686 107.762 47.4966 108.451 48.3443C108.451 47.7546 108.451 47.2018 108.451 46.6366C108.598 46.6366 108.721 46.6366 108.856 46.6366C108.856 48.0126 108.856 49.3885 108.856 50.8013ZM106.128 49.3148C106.128 49.9782 106.644 50.4819 107.295 50.4819C107.934 50.4696 108.451 49.9659 108.451 49.3271C108.463 48.676 107.934 48.1477 107.283 48.1477C106.644 48.1354 106.128 48.6514 106.128 49.3148Z" fill="white"/>
<path d="M94.9681 49.5114C94.1077 49.5114 93.2474 49.5114 92.3748 49.5114C92.4362 49.9536 92.6575 50.2485 93.0508 50.3836C93.6161 50.5802 94.12 50.4819 94.5133 49.9782C94.6239 50.0519 94.7345 50.1134 94.8329 50.1748C94.5256 50.8136 93.6407 51.0593 92.891 50.7768C92.129 50.4819 91.7357 49.6342 92.0061 48.7988C92.2519 48.0126 93.0016 47.6072 93.8496 47.7792C94.5871 47.9266 95.091 48.7251 94.9681 49.5114ZM92.3871 49.0814C93.1122 49.0814 93.8128 49.0814 94.5256 49.0814C94.4887 48.5531 94.0832 48.16 93.5301 48.1354C92.9402 48.1109 92.4608 48.504 92.3871 49.0814Z" fill="white"/>
<path d="M85.7749 49.5114C84.9146 49.5114 84.0542 49.5114 83.1816 49.5114C83.2431 49.9414 83.4643 50.2239 83.833 50.3713C84.3492 50.5925 84.7917 50.4696 85.3324 49.9782C85.4307 50.0396 85.5414 50.1011 85.6397 50.1625C85.357 50.789 84.4844 51.047 83.7224 50.7768C82.9481 50.5065 82.5548 49.6465 82.8006 48.8111C83.0341 48.0249 83.7838 47.5949 84.6442 47.7669C85.3939 47.9143 85.8978 48.7128 85.7749 49.5114ZM85.3324 49.0937C85.3447 48.5777 84.8777 48.1477 84.3123 48.1477C83.7101 48.1477 83.2185 48.5777 83.2185 49.0937C83.919 49.0937 84.6196 49.0937 85.3324 49.0937Z" fill="white"/>
<path d="M98.4708 49.2902C98.4708 48.4057 99.1836 47.7055 100.056 47.7177C100.941 47.73 101.642 48.4303 101.629 49.3025C101.629 50.1748 100.904 50.8873 100.032 50.875C99.1468 50.875 98.4585 50.1871 98.4708 49.2902ZM98.8887 49.3025C98.8887 49.9659 99.4049 50.4696 100.056 50.4696C100.695 50.4696 101.212 49.9536 101.212 49.3148C101.224 48.6637 100.695 48.1354 100.044 48.1354C99.4049 48.1354 98.8887 48.6514 98.8887 49.3025Z" fill="white"/>
<path d="M102.404 47.816C102.539 47.816 102.65 47.816 102.785 47.816C102.797 47.9143 102.822 48.0249 102.834 48.1477C102.883 48.1109 102.932 48.074 102.957 48.0494C103.301 47.73 103.706 47.6809 104.149 47.7792C104.616 47.8897 104.948 48.2706 104.972 48.7866C104.997 49.45 104.972 50.1134 104.972 50.8013C104.849 50.8013 104.727 50.8013 104.579 50.8013C104.579 50.7276 104.567 50.6416 104.567 50.5556C104.567 50.0274 104.567 49.4991 104.567 48.9585C104.567 48.676 104.481 48.418 104.21 48.2583C103.719 47.9757 103.055 48.2214 102.883 48.762C102.822 48.9585 102.809 49.1674 102.809 49.3762C102.797 49.7571 102.809 50.1379 102.809 50.5188C102.809 50.6048 102.797 50.703 102.797 50.8013C102.662 50.8013 102.539 50.8013 102.404 50.8013C102.404 49.8062 102.404 48.8234 102.404 47.816Z" fill="white"/>
<path d="M95.6932 51.993C95.6932 51.8579 95.6932 51.7473 95.6932 51.6244C96.1234 51.6244 96.3323 51.3664 96.4921 51.0225C96.5535 50.8873 96.5535 50.7645 96.4921 50.6293C96.1111 49.7817 95.7301 48.934 95.3614 48.0863C95.3245 48.0003 95.2999 47.9266 95.2507 47.816C95.4105 47.816 95.5457 47.816 95.6809 47.816C96.0373 48.6146 96.406 49.4131 96.787 50.2731C97.1189 49.4254 97.4261 48.6268 97.7457 47.816C97.8809 47.816 98.0161 47.816 98.1758 47.816C98.139 47.902 98.1144 47.988 98.0898 48.0617C97.7088 49.0445 97.3155 50.0151 96.9345 50.9979C96.8239 51.2804 96.6887 51.5384 96.4429 51.735C96.2463 51.9193 96.0005 52.0298 95.6932 51.993Z" fill="white"/>
<path d="M124.846 48.3689C124.748 48.4303 124.637 48.4917 124.526 48.5531C124.305 48.1969 123.986 48.0986 123.617 48.1723C123.371 48.2214 123.224 48.3566 123.199 48.5409C123.174 48.7497 123.273 48.8971 123.519 48.9831C123.826 49.0937 124.145 49.1674 124.44 49.2902C124.932 49.4991 125.092 50.0396 124.797 50.4573C124.723 50.5556 124.612 50.6662 124.502 50.7153C123.998 50.961 123.482 50.9487 123.015 50.617C122.879 50.5188 122.781 50.3591 122.634 50.1994C122.781 50.1134 122.892 50.0519 123.015 49.9782C123.248 50.4082 123.617 50.5065 124.059 50.4451C124.145 50.4328 124.219 50.4082 124.293 50.3713C124.563 50.2362 124.6 49.8676 124.33 49.6957C124.195 49.6097 124.022 49.5605 123.875 49.5114C123.641 49.4254 123.396 49.3762 123.174 49.2534C122.72 49.02 122.634 48.4549 122.965 48.0617C123.482 47.4843 124.625 47.6932 124.846 48.3689Z" fill="white"/>
<path d="M79.5068 47.816C79.6789 47.816 79.8141 47.816 79.9493 47.816C80.2934 48.6514 80.6252 49.4745 80.9816 50.3468C81.3381 49.4745 81.6822 48.6514 82.014 47.816C82.1615 47.816 82.2844 47.816 82.4565 47.816C82.0386 48.8234 81.6453 49.8062 81.2274 50.8013C81.0554 50.8013 80.9079 50.8013 80.7113 50.8013C80.3303 49.8185 79.9247 48.8234 79.5068 47.816Z" fill="white"/>
<path d="M120.999 48.2214C120.79 48.2214 120.593 48.2214 120.385 48.2214C120.372 48.074 120.372 47.9634 120.36 47.816C120.581 47.816 120.778 47.816 120.987 47.816C120.987 47.5703 120.987 47.3492 120.987 47.1035C121.122 47.0666 121.245 47.0175 121.405 46.9683C121.405 47.2509 121.405 47.5212 121.405 47.8037C121.7 47.8037 121.97 47.8037 122.253 47.8037C122.253 47.9512 122.253 48.0617 122.253 48.2091C121.982 48.2091 121.712 48.2091 121.405 48.2091C121.405 48.3689 121.405 48.504 121.405 48.6391C121.405 49.0937 121.405 49.5482 121.405 50.0151C121.405 50.3591 121.515 50.4573 121.859 50.4696C121.982 50.4696 122.105 50.4696 122.24 50.4696C122.24 50.5925 122.24 50.6908 122.24 50.8136C121.958 50.8996 121.687 50.8873 121.417 50.789C121.097 50.6662 120.987 50.4082 120.987 50.1011C120.974 49.5974 120.987 49.0937 120.987 48.5777C120.999 48.4548 120.999 48.3566 120.999 48.2214Z" fill="white"/>
<path d="M111.437 46.4278C111.585 46.4278 111.695 46.4278 111.83 46.4278C111.83 47.8897 111.83 49.3394 111.83 50.789C111.757 50.789 111.695 50.8013 111.621 50.8013C111.56 50.8013 111.511 50.789 111.437 50.789C111.437 49.3394 111.437 47.902 111.437 46.4278Z" fill="white"/>
<path d="M77.5649 50.8136C77.4789 50.8136 77.4051 50.8136 77.3314 50.8136C77.2822 50.8136 77.2331 50.8013 77.1716 50.789C77.1716 49.3394 77.1716 47.902 77.1716 46.4401C77.2945 46.4278 77.4174 46.4278 77.5649 46.4155C77.5649 47.8774 77.5649 49.3271 77.5649 50.8136Z" fill="white"/>
<path d="M78.5236 50.8013C78.5236 49.8062 78.5236 48.8234 78.5236 47.8283C78.6588 47.8283 78.7817 47.8283 78.9292 47.8283C78.9292 48.8111 78.9292 49.7939 78.9292 50.8013C78.8554 50.8136 78.794 50.8136 78.7325 50.8136C78.6711 50.8136 78.6096 50.8013 78.5236 50.8013Z" fill="white"/>
<path d="M113.17 50.789C113.109 50.8013 113.047 50.8013 112.986 50.8013C112.924 50.8013 112.851 50.789 112.777 50.789C112.777 49.7939 112.777 48.8111 112.777 47.816C112.9 47.816 113.023 47.816 113.17 47.816C113.17 48.8111 113.17 49.7939 113.17 50.789Z" fill="white"/>
<path d="M119.328 47.816C119.377 47.8037 119.426 47.8037 119.475 47.7914C119.549 47.7914 119.623 47.7914 119.709 47.7914C119.709 48.7988 119.709 49.7817 119.709 50.7768C119.586 50.7768 119.463 50.7768 119.315 50.7768C119.328 49.8062 119.328 48.8234 119.328 47.816Z" fill="white"/>
<path d="M119.819 46.8946C119.819 47.0666 119.684 47.1895 119.512 47.1772C119.352 47.1772 119.229 47.0543 119.229 46.8823C119.229 46.7226 119.352 46.5998 119.512 46.5998C119.684 46.5998 119.819 46.7226 119.819 46.8946Z" fill="white"/>
<path d="M113.281 46.8946C113.281 47.0666 113.145 47.1895 112.973 47.1772C112.814 47.1649 112.703 47.042 112.703 46.8823C112.703 46.7104 112.838 46.5875 113.01 46.5998C113.17 46.6121 113.281 46.7349 113.281 46.8946Z" fill="white"/>
<path d="M78.7325 47.1772C78.5727 47.1772 78.4498 47.0666 78.4375 46.9069C78.4252 46.7349 78.5481 46.5998 78.7202 46.5998C78.8923 46.5998 79.0152 46.7226 79.0152 46.8946C79.0152 47.0543 78.8923 47.1772 78.7325 47.1772Z" fill="white"/>
<ellipse cx="34.4505" cy="32.1155" rx="4.11727" ry="4.11554" fill="#EF8E19"/>
<path d="M32.3633 35.664C31.6752 35.2587 31.1154 34.6591 30.7592 33.9408C30.7598 34.0295 30.7441 34.1192 30.7108 34.2189C30.3175 35.472 30.2315 36.7497 30.4527 38.0519C30.6862 39.477 31.227 40.7915 32.1488 41.9094C34.3119 44.5508 37.1264 45.6564 40.4939 45.0545C44.5743 44.3173 47.4748 40.7546 47.4871 36.6391C47.4626 36.3811 47.4503 36.1231 47.4503 35.8897C47.2536 33.8749 46.467 32.1181 45.0291 30.693C42.657 28.3589 39.8303 27.6463 36.6102 28.4449C36.5173 28.4647 36.4352 28.4739 36.3561 28.4665C37.065 28.8372 37.6525 29.4081 38.0434 30.1043C38.9527 29.9603 39.8275 30.048 40.6906 30.2876C42.1777 30.7053 43.3699 31.5407 44.2671 32.7815C46.0615 35.2386 45.914 38.6784 43.9844 40.9266C41.8827 43.3714 38.466 43.9365 35.7867 42.4991C33.0487 41.0217 31.9468 38.1118 32.3633 35.664Z" fill="white"/>
</svg>
