<svg width="180" height="80" viewBox="0 0 180 80" fill="none" xmlns="http://www.w3.org/2000/svg">
<path d="M132.455 25.9736V38.9887L136.446 35.021H140.236L134.915 40.2018L140.613 47.3538H136.948L132.907 42.1477L132.455 42.6026V47.3538H129.619V25.9736H132.455Z" fill="#F47D20"/>
<path fill-rule="evenodd" clip-rule="evenodd" d="M35.3211 42.5773H43.6289L45.662 47.3284H48.8496L39.5879 26.5801L30 47.3284H33.1625L35.3211 42.5773ZM39.5628 33.1761L42.4242 39.8226H36.5509L39.5628 33.1761Z" fill="#F47D20"/>
<path fill-rule="evenodd" clip-rule="evenodd" d="M50.7321 54.0256H53.5683V45.9638C54.6977 47.1263 55.9778 47.7076 57.4085 47.7076C59.065 47.7076 60.4455 47.0758 61.5248 45.8627C62.6291 44.6244 63.1813 43.0828 63.1813 41.2379C63.1813 39.3425 62.6291 37.7756 61.5248 36.5373C60.4204 35.299 59.0399 34.6672 57.3583 34.6672C55.9527 34.6672 54.6726 35.2484 53.5683 36.3604V35.021H50.7321V54.0256ZM59.3411 38.3569C59.9686 39.0898 60.2949 40.0501 60.2949 41.2379C60.2949 42.3499 59.9686 43.285 59.316 44.0178C58.6634 44.7507 57.8603 45.1298 56.8814 45.1298C55.8523 45.1298 54.9989 44.7507 54.3715 44.0178C53.7189 43.2597 53.3926 42.3246 53.3926 41.1621C53.3926 39.9743 53.7189 39.0393 54.3715 38.3064C55.024 37.5735 55.8774 37.2197 56.9065 37.2197C57.8854 37.2197 58.6885 37.5987 59.3411 38.3569Z" fill="#F47D20"/>
<path fill-rule="evenodd" clip-rule="evenodd" d="M68.8287 54.0256H65.9925V35.021H68.8287V36.3604C69.9331 35.2484 71.2132 34.6672 72.6187 34.6672C74.3004 34.6672 75.6809 35.299 76.7852 36.5373C77.8896 37.7756 78.4418 39.3425 78.4418 41.2379C78.4418 43.0828 77.8896 44.6244 76.7852 45.8627C75.706 47.0758 74.3255 47.7076 72.6689 47.7076C71.2383 47.7076 69.9582 47.1263 68.8287 45.9638V54.0256ZM75.5554 41.2379C75.5554 40.0501 75.2291 39.0898 74.6016 38.3569C73.949 37.5987 73.1458 37.2197 72.1669 37.2197C71.1379 37.2197 70.2845 37.5735 69.6319 38.3064C68.9793 39.0393 68.653 39.9743 68.653 41.1621C68.653 42.3246 68.9793 43.2597 69.6319 44.0178C70.2594 44.7507 71.1128 45.1298 72.1418 45.1298C73.1207 45.1298 73.9239 44.7507 74.5765 44.0178C75.2291 43.285 75.5554 42.3499 75.5554 41.2379Z" fill="#F47D20"/>
<path d="M86.0972 40.8589L81.0522 27.8186H77.8897L86.1223 48.6175L91.3178 34.7684L96.3126 48.5922L104.972 27.8186H101.784L96.413 40.8589L91.368 26.8582L86.0972 40.8589Z" fill="#F47D20"/>
<path fill-rule="evenodd" clip-rule="evenodd" d="M104.143 41.0863C104.143 39.3172 104.771 37.8009 106.051 36.5373C107.306 35.299 108.862 34.6672 110.669 34.6672C112.502 34.6672 114.033 35.299 115.313 36.5626C116.568 37.8262 117.195 39.3678 117.195 41.1874C117.195 43.0322 116.568 44.5738 115.288 45.8374C114.008 47.0758 112.451 47.7076 110.594 47.7076C108.762 47.7076 107.231 47.0758 105.976 45.8122C104.771 44.5486 104.143 42.9817 104.143 41.0863ZM107.03 41.1368C107.03 42.3752 107.356 43.3355 108.009 44.0684C108.686 44.8013 109.565 45.1551 110.669 45.1551C111.774 45.1551 112.652 44.8013 113.33 44.0684C113.982 43.3608 114.334 42.4004 114.334 41.1874C114.334 39.9996 114.008 39.0392 113.33 38.3064C112.652 37.5735 111.774 37.2197 110.669 37.2197C109.59 37.2197 108.712 37.5735 108.034 38.3064C107.381 39.0645 107.03 39.9996 107.03 41.1368Z" fill="#F47D20"/>
<path d="M122.767 35.021H119.906V47.3538H122.742V40.96C122.742 38.6097 123.52 37.4471 125.051 37.4471C125.578 37.4471 126.105 37.6493 126.632 38.0284L127.938 35.4254C127.134 34.9452 126.356 34.6925 125.603 34.6925C125.051 34.6925 124.549 34.8189 124.148 35.021C123.746 35.1979 123.294 35.577 122.767 36.133V35.021Z" fill="#F47D20"/>
<path d="M146.888 38.3823L149.222 37.1187C148.444 35.476 147.289 34.6673 145.733 34.5915C144.679 34.5915 143.775 34.9453 143.022 35.6529C142.269 36.3605 141.918 37.245 141.918 38.3065C141.918 39.1152 142.144 39.7975 142.571 40.303C142.897 40.7073 143.474 41.1117 144.302 41.516C144.579 41.6676 144.88 41.8193 145.156 41.9456C145.294 42.0215 145.438 42.091 145.583 42.1604C145.727 42.2299 145.871 42.2994 146.009 42.3753C146.737 42.8049 147.114 43.2851 147.114 43.7905C147.114 44.675 146.637 45.1046 145.683 45.1046C145.206 45.1046 144.804 44.953 144.453 44.6245C144.252 44.4476 144.001 44.0685 143.675 43.4872L141.265 44.6245C142.119 46.6462 143.575 47.6571 145.633 47.6571C146.837 47.6571 147.841 47.278 148.695 46.5199C149.573 45.7112 150 44.7256 150 43.5378C150 42.628 149.749 41.8951 149.222 41.3391C148.695 40.7831 147.691 40.2019 146.185 39.5448C145.106 39.0899 144.553 38.635 144.553 38.1548C144.553 37.9021 144.654 37.6747 144.83 37.4978C145.03 37.3209 145.256 37.245 145.507 37.245C146.059 37.245 146.511 37.6241 146.888 38.3823Z" fill="#F47D20"/>
</svg>
